HIERARCHY
ROOT hip
{
  OFFSET 0 0 0
  CHANNELS 6 Xposition Yposition Zposition Zrotation Yrotation Xrotation
  JOINT abdomen
  {
    OFFSET 0 20.6881 -0.73152
    CHANNELS 3 Zrotation Xrotation Yrotation
    JOINT chest
    {
      OFFSET 0 11.7043 -0.48768
      CHANNELS 3 Zrotation Xrotation Yrotation
      JOINT neck
      {
        OFFSET 0 22.1894 -2.19456
        CHANNELS 3 Zrotation Xrotation Yrotation
        JOINT head
        {
          OFFSET -0.24384 7.07133 1.2192
          CHANNELS 3 Zrotation Xrotation Yrotation
          JOINT leftEye
          {
            OFFSET 4.14528 8.04674 8.04672
            CHANNELS 3 Zrotation Xrotation Yrotation
            End Site
            {
              OFFSET 1 0 0
            }
          }
          JOINT rightEye
          {
            OFFSET -3.6576 8.04674 8.04672
            CHANNELS 3 Zrotation Xrotation Yrotation
            End Site
            {
              OFFSET 1 0 0
            }
          }
        }
      }
      JOINT rCollar
      {
        OFFSET -2.68224 19.2634 -4.8768
        CHANNELS 3 Zrotation Xrotation Yrotation
        JOINT rShldr
        {
          OFFSET -8.77824 -1.95073 1.46304
          CHANNELS 3 Zrotation Xrotation Yrotation
          JOINT rForeArm
          {
            OFFSET -28.1742 -1.7115 0.48768
            CHANNELS 3 Zrotation Xrotation Yrotation
            JOINT rHand
            {
              OFFSET -22.5879 0.773209 7.07136
              CHANNELS 3 Zrotation Xrotation Yrotation
              JOINT rThumb1
              {
                OFFSET -1.2192 -0.487915 3.41376
                CHANNELS 3 Zrotation Xrotation Yrotation
                JOINT rThumb2
                {
                  OFFSET -3.37035 -0.52449 3.41376
                  CHANNELS 3 Zrotation Xrotation Yrotation
                  End Site
                  {
                    OFFSET -1.78271 -1.18214 1.43049
                  }
                }
              }
              JOINT rIndex1
              {
                OFFSET -7.75947 0.938293 5.60832
                CHANNELS 3 Zrotation Xrotation Yrotation
                JOINT rIndex2
                {
                  OFFSET -2.54057 -0.884171 1.56538
                  CHANNELS 3 Zrotation Xrotation Yrotation
                  End Site
                  {
                    OFFSET -1.62519 -0.234802 1.16502
                  }
                }
              }
              JOINT rMid1
              {
                OFFSET -8.24714 1.18213 3.41376
                CHANNELS 3 Zrotation Xrotation Yrotation
                JOINT rMid2
                {
                  OFFSET -3.10165 -0.590103 1.0647
                  CHANNELS 3 Zrotation Xrotation Yrotation
                  End Site
                  {
                    OFFSET -2.48547 -0.328903 0.83742
                  }
                }
              }
              JOINT rRing1
              {
                OFFSET -8.82822 0.546677 1.51678
                CHANNELS 3 Zrotation Xrotation Yrotation
                JOINT rRing2
                {
                  OFFSET -2.60934 -0.819778 -0.0198488
                  CHANNELS 3 Zrotation Xrotation Yrotation
                  End Site
                  {
                    OFFSET -2.33842 -0.294052 0.168128
                  }
                }
              }
              JOINT rPinky1
              {
                OFFSET -8.27202 -0.0477905 -0.4584
                CHANNELS 3 Zrotation Xrotation Yrotation
                JOINT rPinky2
                {
                  OFFSET -1.82734 -0.647385 -0.700984
                  CHANNELS 3 Zrotation Xrotation Yrotation
                  End Site
                  {
                    OFFSET -1.69225 -0.51767 -0.607171
                  }
                }
              }
            }
          }
        }
      }
      JOINT lCollar
      {
        OFFSET 2.68224 19.2634 -4.8768
        CHANNELS 3 Zrotation Xrotation Yrotation
        JOINT lShldr
        {
          OFFSET 8.77824 -1.95073 1.46304
          CHANNELS 3 Zrotation Xrotation Yrotation
          JOINT lForeArm
          {
            OFFSET 28.1742 -1.7115 0.48768
            CHANNELS 3 Zrotation Xrotation Yrotation
            JOINT lHand
            {
              OFFSET 22.5879 0.773209 7.07136
              CHANNELS 3 Zrotation Xrotation Yrotation
              JOINT lThumb1
              {
                OFFSET 1.2192 -0.487915 3.41376
                CHANNELS 3 Zrotation Xrotation Yrotation
                JOINT lThumb2
                {
                  OFFSET 3.37035 -0.52449 3.41376
                  CHANNELS 3 Zrotation Xrotation Yrotation
                  End Site
                  {
                    OFFSET 1.78271 -1.18214 1.43049
                  }
                }
              }
              JOINT lIndex1
              {
                OFFSET 7.75947 0.938293 5.60832
                CHANNELS 3 Zrotation Xrotation Yrotation
                JOINT lIndex2
                {
                  OFFSET 2.54057 -0.884171 1.56538
                  CHANNELS 3 Zrotation Xrotation Yrotation
                  End Site
                  {
                    OFFSET 1.62519 -0.234802 1.16502
                  }
                }
              }
              JOINT lMid1
              {
                OFFSET 8.24714 1.18213 3.41376
                CHANNELS 3 Zrotation Xrotation Yrotation
                JOINT lMid2
                {
                  OFFSET 3.10165 -0.590103 1.0647
                  CHANNELS 3 Zrotation Xrotation Yrotation
                  End Site
                  {
                    OFFSET 2.48547 -0.328903 0.83742
                  }
                }
              }
              JOINT lRing1
              {
                OFFSET 8.82822 0.546677 1.51678
                CHANNELS 3 Zrotation Xrotation Yrotation
                JOINT lRing2
                {
                  OFFSET 2.60934 -0.819778 -0.0198488
                  CHANNELS 3 Zrotation Xrotation Yrotation
                  End Site
                  {
                    OFFSET 2.33842 -0.294052 0.168128
                  }
                }
              }
              JOINT lPinky1
              {
                OFFSET 8.27202 -0.0477905 -0.4584
                CHANNELS 3 Zrotation Xrotation Yrotation
                JOINT lPinky2
                {
                  OFFSET 1.82734 -0.647385 -0.700984
                  CHANNELS 3 Zrotation Xrotation Yrotation
                  End Site
                  {
                    OFFSET 1.69225 -0.51767 -0.607171
                  }
                }
              }
            }
          }
        }
      }
    }
  }
  JOINT rButtock
  {
    OFFSET -8.77824 4.35084 1.2192
    CHANNELS 3 Zrotation Xrotation Yrotation
    JOINT rThigh
    {
      OFFSET 0 -1.70687 -2.19456
      CHANNELS 3 Zrotation Xrotation Yrotation
      JOINT rShin
      {
        OFFSET 0 -36.8199 0.73152
        CHANNELS 3 Zrotation Xrotation Yrotation
        JOINT rFoot
        {
          OFFSET 0.73152 -45.1104 -5.12064
          CHANNELS 3 Zrotation Xrotation Yrotation
          End Site
          {
            OFFSET -1.1221 -3.69964 12.103
          }
        }
      }
    }
  }
  JOINT lButtock
  {
    OFFSET 8.77824 4.35084 1.2192
    CHANNELS 3 Zrotation Xrotation Yrotation
    JOINT lThigh
    {
      OFFSET 0 -1.70687 -2.19456
      CHANNELS 3 Zrotation Xrotation Yrotation
      JOINT lShin
      {
        OFFSET 0 -36.8199 0.73152
        CHANNELS 3 Zrotation Xrotation Yrotation
        JOINT lFoot
        {
          OFFSET -0.73152 -45.1104 -5.12064
          CHANNELS 3 Zrotation Xrotation Yrotation
          End Site
          {
            OFFSET 1.1221 -3.69964 12.103
          }
        }
      }
    }
  }
}
MOTION
Frames:	6
Frame Time:	0.00833333
-125.906 84.8928 22.0453 0.0 0.0 0.0 -0.180148 -0.000587414 -0.00513801 -0.0496823 -0.000860793 -0.00860671 -2.1732e-15 -1.59028e-15 9.31802e-18 -6.51641e-15 3.18055e-15 2.01891e-17 -0.0 0.0 0.0 -0.0 0.0 0.0 -1.09467e-15 5.82377e-19 1.49089e-16 -1.99121e-14 -6.21202e-17 7.95139e-16 -3.88922e-13 1.18078e-13 -1.27222e-14 -4.49349e-12 -1.18004e-13 2.22639e-14 -1.0592e-11 4.7077e-16 3.81667e-14 -1.82957e-11 0.0 5.56597e-14 -1.05849e-11 1.98785e-15 2.54444e-14 7.73091 5.47488 0.417314 -1.05915e-11 5.96354e-16 3.81667e-14 2.90554 0.965183 0.102902 -1.05797e-11 1.09332e-15 3.26007e-14 10.2786 0.731801 0.0259123 -1.05954e-11 -3.97569e-16 4.13472e-14 2.22167 -0.733487 -0.20892 -1.09203e-15 3.88251e-19 -1.49089e-16 -2.54224e-14 4.34841e-17 -7.95139e-16 -3.97072e-13 -1.15096e-13 2.22639e-14 -4.48472e-12 1.2342e-13 -3.18055e-15 -1.05891e-11 1.83401e-14 3.49861e-14 -1.82798e-11 2.8625e-14 6.67917e-14 -1.05952e-11 2.3059e-14 5.08889e-14 -7.73091 5.47488 -0.417314 -1.05883e-11 1.90833e-14 3.18055e-14 -2.90554 0.965183 -0.102902 -1.06026e-11 1.88845e-14 3.49861e-14 -10.2786 0.731801 -0.0259123 -1.05897e-11 1.82882e-14 3.18055e-14 -2.22167 -0.733487 0.20892 -2.03217e-16 0.0 -3.88251e-19 0.373568 -2.84391 -0.0347139 -0.00664983 -0.401535 -0.0584294 -0.509719 3.24465 0.124536 2.03217e-16 0.0 3.88251e-19 -0.647771 -3.54407 0.0518673 0.00461056 0.866744 0.0396096 0.511839 2.67656 -0.113178
-126.787 83.0018 14.9645 -179.593 6.7634 -166.75 -1.05835 -4.99254 -0.0692514 0.919845 0.906056 0.0761063 -0.992082 6.05612 0.330344 2.09694 -10.7934 1.3046 -0.0 0.0 0.0 -0.0 0.0 0.0 -1.60293e-15 6.6316e-15 3.33411e-14 23.5199 10.5823 0.368422 -3.60953 -1.53483 5.747 0.035843 4.20511 0.58527 -2.78802e-10 1.86768e-10 2.72628e-11 -4.8192e-10 3.19678e-10 5.08817e-11 -2.78796e-10 1.86769e-10 2.72519e-11 7.73091 5.47488 0.417314 -2.78802e-10 1.86768e-10 2.7262e-11 2.90554 0.965183 0.102902 -2.7879e-10 1.86769e-10 2.72586e-11 10.2786 0.731801 0.0259123 -2.78807e-10 1.86768e-10 2.72688e-11 2.22167 -0.733487 -0.20892 -1.62898e-15 6.63185e-15 3.3027e-14 -23.1753 13.7097 -1.29507 3.70323 -1.59152 -5.87924 -0.104451 7.18004 -0.980711 2.488e-10 -5.58731e-11 -3.29029e-11 4.29449e-10 -1.04553e-10 -6.2735e-11 2.48795e-10 -5.58706e-11 -3.28896e-11 -7.73091 5.47488 -0.417314 2.48801e-10 -5.58731e-11 -3.29033e-11 -2.90554 0.965183 -0.102902 2.4879e-10 -5.5873e-11 -3.29021e-11 -10.2786 0.731801 -0.0259123 2.48802e-10 -5.58726e-11 -3.29058e-11 -2.22167 -0.733487 0.20892 -2.03217e-16 0.0 -3.88251e-19 -0.330318 -7.68377 2.57089 -0.000812161 5.73979 0.0399533 -0.862315 1.71986 -6.56065 2.03217e-16 0.0 3.88251e-19 0.477595 -10.1275 -3.67527 -0.0106731 7.99147 -0.093334 0.656103 -2.54135 1.50845
-126.785 83.0013 14.969 -179.577 6.7191 -166.732 -1.99945 -10.2712 -0.13813 1.94374 1.86438 0.165961 -2.11628 12.4443 0.689263 4.87455 -22.1493 2.83499 -0.0 0.0 0.0 -0.0 0.0 0.0 -3.26918e-15 9.16886e-15 6.67948e-14 48.2218 21.7662 0.807395 -7.08218 -3.09923 11.8196 -0.0207878 8.66891 1.21735 -6.01697e-10 3.93456e-10 8.33399e-11 -1.03977e-09 6.72952e-10 1.52288e-10 -6.01692e-10 3.93456e-10 8.33307e-11 7.73091 5.47488 0.417314 -6.01697e-10 3.93456e-10 8.33381e-11 2.90554 0.965183 0.102902 -6.01686e-10 3.93456e-10 8.33371e-11 10.2786 0.731801 0.0259123 -6.01703e-10 3.93456e-10 8.33488e-11 2.22167 -0.733487 -0.20892 -3.32821e-15 9.16961e-15 6.64624e-14 -46.9189 28.1927 -2.93282 7.27059 -3.22176 -12.1179 0.0605805 14.7531 -2.06859 5.75934e-10 -7.83998e-11 -5.1681e-11 9.94511e-10 -1.53481e-10 -1.0261e-10 5.7593e-10 -7.83999e-11 -5.16705e-11 -7.73091 5.47488 -0.417314 5.75935e-10 -7.84008e-11 -5.16784e-11 -2.90554 0.965183 -0.102902 5.75927e-10 -7.84004e-11 -5.16793e-11 -10.2786 0.731801 -0.0259123 5.7594e-10 -7.8399e-11 -5.16834e-11 -2.22167 -0.733487 0.20892 -2.03217e-16 0.0 -3.88251e-19 -0.585763 -12.7638 5.40998 -0.0179418 12.2331 0.146913 -1.61862 0.12644 -13.6203 2.03217e-16 0.0 3.88251e-19 0.69889 -16.9804 -7.8412 0.0102877 15.5231 -0.240797 1.13228 -8.04476 3.25235
-126.765 83.0016 14.9693 -179.492 6.7397 -166.734 -2.84929 -14.9764 -0.203606 2.85085 2.71987 0.245781 -3.19509 18.1659 1.0372 7.99321 -32.3065 4.55006 -0.0 0.0 0.0 -0.0 0.0 0.0 -2.61945e-15 1.98936e-14 9.97251e-14 70.0905 31.7413 1.27758 -9.91807 -4.41953 17.2878 -0.155577 12.61 1.79438 -8.15223e-10 5.60303e-10 8.17122e-11 -1.40917e-09 9.59033e-10 1.52534e-10 -8.15218e-10 5.60303e-10 8.17047e-11 7.73091 5.47488 0.417314 -8.15222e-10 5.60303e-10 8.17096e-11 2.90554 0.965183 0.102902 -8.15212e-10 5.60304e-10 8.17107e-11 10.2786 0.731801 0.0259123 -8.1523e-10 5.60304e-10 8.17237e-11 2.22167 -0.733487 -0.20892 -2.70288e-15 1.98948e-14 9.93791e-14 -67.1557 41.0308 -5.00634 10.1444 -4.57384 -17.6891 0.470623 21.5139 -3.13788 7.67578e-10 -1.67656e-10 -9.87787e-11 1.32491e-09 -3.13716e-10 -1.88339e-10 7.67576e-10 -1.67658e-10 -9.87706e-11 -7.73091 5.47488 -0.417314 7.67579e-10 -1.67658e-10 -9.87736e-11 -2.90554 0.965183 -0.102902 7.67574e-10 -1.67657e-10 -9.87763e-11 -10.2786 0.731801 -0.0259123 7.67587e-10 -1.67655e-10 -9.8781e-11 -2.22167 -0.733487 0.20892 -2.03217e-16 0.0 -3.88251e-19 -0.367132 -17.2242 8.0772 -0.0547889 18.0223 0.248297 -2.61648 -1.21819 -19.9264 2.03217e-16 0.0 3.88251e-19 -0.0162085 -22.9054 -11.9085 0.0644118 22.2405 -0.385147 1.84729 -12.9345 4.8709
-126.754 83.0025 14.9671 -179.44 6.7318 -166.747 -3.44673 -18.248 -0.254894 3.47171 3.3183 0.300276 -4.00675 22.2232 1.31532 10.7443 -39.5312 6.16414 -0.0 0.0 0.0 -0.0 0.0 0.0 3.82022e-15 5.10873e-14 1.31347e-13 85.2355 38.7001 1.66009 -11.7886 -5.30147 21.2014 -0.293984 15.2495 2.1958 -7.55324e-10 6.27549e-10 -6.41772e-11 -1.30745e-09 1.07713e-09 -1.00124e-10 -7.5532e-10 6.27549e-10 -6.41836e-11 7.73091 5.47488 0.417314 -7.55324e-10 6.27549e-10 -6.41804e-11 2.90554 0.965183 0.102902 -7.55314e-10 6.2755e-10 -6.4178e-11 10.2786 0.731801 0.0259123 -7.55331e-10 6.2755e-10 -6.41645e-11 2.22167 -0.733487 -0.20892 3.73384e-15 5.10884e-14 1.30999e-13 -80.385 49.8435 -7.17961 11.9649 -5.42408 -21.5419 0.928441 26.2686 -3.97744 6.20498e-10 -4.23735e-10 -2.16675e-10 1.06864e-09 -7.52214e-10 -3.88701e-10 6.20496e-10 -4.23738e-10 -2.16669e-10 -7.73091 5.47488 -0.417314 6.20499e-10 -4.23737e-10 -2.16669e-10 -2.90554 0.965183 -0.102902 6.20495e-10 -4.23736e-10 -2.16673e-10 -10.2786 0.731801 -0.0259123 6.20508e-10 -4.23733e-10 -2.16678e-10 -2.22167 -0.733487 0.20892 -2.03217e-16 0.0 -3.88251e-19 0.0523075 -20.264 10.049 -0.093724 22.0515 0.324149 -3.48256 -2.08071 -24.3374 2.03217e-16 0.0 3.88251e-19 -1.0743 -26.8711 -15.0229 0.124747 26.9229 -0.497087 2.51621 -16.3328 6.05221
-126.752 83.0019 14.9671 -179.42 6.6899 -166.723 -3.67903 -19.5057 -0.283712 3.69461 3.55632 0.318375 -4.36758 23.9635 1.46951 12.2163 -42.7251 7.12858 -0.0 0.0 0.0 -0.0 0.0 0.0 2.34814e-14 1.25739e-13 1.74145e-13 91.1831 41.4504 1.77849 -12.5714 -5.68658 22.9069 -0.348369 16.06 2.3227 -2.42919e-10 5.78391e-10 -5.07077e-10 -4.26761e-10 1.0015e-09 -8.72013e-10 -2.42916e-10 5.78393e-10 -5.07083e-10 7.73091 5.47488 0.417314 -2.42919e-10 5.78392e-10 -5.07081e-10 2.90554 0.965183 0.102902 -2.4291e-10 5.78393e-10 -5.07078e-10 10.2786 0.731801 0.0259123 -2.42925e-10 5.78393e-10 -5.07065e-10 2.22167 -0.733487 -0.20892 2.34294e-14 1.2574e-13 1.7381e-13 -85.2508 53.105 -8.34271 12.595 -5.70267 -22.9543 1.16119 28.2387 -4.35239 -1.30513e-10 -1.04602e-09 -5.07895e-10 -2.34492e-10 -1.80574e-09 -8.74828e-10 -1.30515e-10 -1.04603e-09 -5.07889e-10 -7.73091 5.47488 -0.417314 -1.30512e-10 -1.04602e-09 -5.07889e-10 -2.90554 0.965183 -0.102902 -1.30515e-10 -1.04602e-09 -5.07893e-10 -10.2786 0.731801 -0.0259123 -1.30503e-10 -1.04602e-09 -5.079e-10 -2.22167 -0.733487 0.20892 -2.03217e-16 0.0 -3.88251e-19 0.287116 -21.3994 10.8673 -0.112418 23.6155 0.355073 -3.85646 -2.39255 -26.0778 2.03217e-16 0.0 3.88251e-19 -1.61331 -28.3543 -16.3074 0.154048 28.7572 -0.544282 2.8148 -17.6816 6.51542
